<svg id="visual" viewBox="0 0 900 600" width="900" height="600" xmlns="http://www.w3.org/2000/svg" xmlns:xlink="http://www.w3.org/1999/xlink" version="1.1"><rect x="0" y="0" width="900" height="600" fill="#ffffff"></rect><defs><linearGradient id="grad1_0" x1="33.3%" y1="0%" x2="100%" y2="100%"><stop offset="20%" stop-color="#ffffff" stop-opacity="1"></stop><stop offset="80%" stop-color="#ffffff" stop-opacity="1"></stop></linearGradient></defs><defs><linearGradient id="grad2_0" x1="0%" y1="0%" x2="66.7%" y2="100%"><stop offset="20%" stop-color="#ffffff" stop-opacity="1"></stop><stop offset="80%" stop-color="#ffffff" stop-opacity="1"></stop></linearGradient></defs><g transform="translate(900, 0)"><path d="M0 270.4C-47.4 263.4 -94.8 256.4 -135.2 234.2C-175.6 212 -209 174.6 -230.4 133C-251.7 91.4 -261.1 45.7 -270.4 0L0 0Z" fill="#2cb1ec"></path></g><g transform="translate(0, 600)"><path d="M0 -270.4C48.3 -263.9 96.7 -257.5 135.2 -234.2C173.8 -210.9 202.5 -170.8 223.4 -129C244.3 -87.2 257.4 -43.6 270.4 0L0 0Z" fill="#2cb1ec"></path></g></svg>